<svg width="768" height="1024" xmlns="http://www.w3.org/2000/svg">

 <g>
  <title>background</title>
  <rect fill="none" id="canvas_background" height="402" width="582" y="-1" x="-1"/>
 </g>
 <g>
  <title>Layer 1</title>
  <path id="svg_1" d="m128,64c-70.656,0 -128,57.344 -128,128c0,47.219 25.906,88.062 64,110.281l0,419.469c-38.094,22.188 -64,63 -64,110.25c0,70.625 57.344,128 128,128s128,-57.375 128,-128c0,-47.25 -25.844,-88.062 -64,-110.25l0,-419.469c38.156,-22.219 64,-63.062 64,-110.281c0,-70.656 -57.344,-128 -128,-128zm0,832c-35.312,0 -64,-28.625 -64,-64c0,-35.312 28.688,-64 64,-64c35.406,0 64,28.688 64,64c0,35.375 -28.594,64 -64,64zm0,-640c-35.312,0 -64,-28.594 -64,-64s28.688,-64 64,-64c35.406,0 64,28.594 64,64s-28.594,64 -64,64zm576,465.75l0,-401.75c0,-192.5 -192,-192 -192,-192l-64,0l0,-128l-192,192l192,192l0,-128c0,0 26.688,0 64,0c56.438,0 64,64 64,64l0,401.75c-38.125,22.188 -64,62.938 -64,110.25c0,70.625 57.375,128 128,128s128,-57.375 128,-128c0,-47.25 -25.875,-88.062 -64,-110.25zm-64,174.25c-35.312,0 -64,-28.625 -64,-64c0,-35.312 28.688,-64 64,-64c35.375,0 64,28.688 64,64c0,35.375 -28.625,64 -64,64z"/>
 </g>
</svg>